<?xml version="1.0" encoding="UTF-8" standalone="no"?><svg xmlns="http://www.w3.org/2000/svg" xmlns:xlink="http://www.w3.org/1999/xlink" contentStyleType="text/css" height="488px" preserveAspectRatio="none" style="width:342px;height:488px;background:#FFFFFF;" version="1.1" viewBox="0 0 342 488" width="342px" zoomAndPan="magnify"><defs/><g><!--MD5=[0d56f9b7b7f4f37c16239200c986316f]
cluster Casos-de-Uso--><g id="cluster_Casos-de-Uso"><path d="M96.5,6 L195.5,6 A3.75,3.75 0 0 1 198,8.5 L205,29.6094 L332.5,29.6094 A2.5,2.5 0 0 1 335,32.1094 L335,478.5 A2.5,2.5 0 0 1 332.5,481 L96.5,481 A2.5,2.5 0 0 1 94,478.5 L94,8.5 A2.5,2.5 0 0 1 96.5,6 " fill="none" style="stroke:#000000;stroke-width:1.5;"/><line style="stroke:#000000;stroke-width:1.5;" x1="94" x2="205" y1="29.6094" y2="29.6094"/><text fill="#000000" font-family="sans-serif" font-size="14" font-weight="bold" lengthAdjust="spacing" textLength="98" x="98" y="22.5332">Casos-de-Uso</text></g><g id="elem_UC1"><ellipse cx="214.2516" cy="60.9503" fill="#F1F1F1" rx="82.7516" ry="18.9503" style="stroke:#181818;stroke-width:0.5;"/><text fill="#000000" font-family="sans-serif" font-size="14" lengthAdjust="spacing" textLength="121" x="153.7516" y="64.6788">Vizualisar Produtos</text></g><g id="elem_UC2"><ellipse cx="214.5397" cy="138.8079" fill="#F1F1F1" rx="104.5397" ry="23.3079" style="stroke:#181818;stroke-width:0.5;"/><text fill="#000000" font-family="sans-serif" font-size="14" lengthAdjust="spacing" textLength="171" x="129.0397" y="142.5365">Acessar Lista de Mercados</text></g><g id="elem_UC3"><ellipse cx="214.2928" cy="220.8586" fill="#F1F1F1" rx="102.2928" ry="22.8586" style="stroke:#181818;stroke-width:0.5;"/><text fill="#000000" font-family="sans-serif" font-size="14" lengthAdjust="spacing" textLength="166" x="131.2928" y="224.5871">Acessar Lista de Compras</text></g><g id="elem_UC4"><ellipse cx="214.5066" cy="298.2013" fill="#F1F1F1" rx="84.0066" ry="19.2013" style="stroke:#181818;stroke-width:0.5;"/><text fill="#000000" font-family="sans-serif" font-size="14" lengthAdjust="spacing" textLength="124" x="152.5066" y="301.9298">Pesquisar Produtos</text></g><g id="elem_UC5"><ellipse cx="214.6819" cy="370.1364" fill="#F1F1F1" rx="78.6819" ry="18.1364" style="stroke:#181818;stroke-width:0.5;"/><text fill="#000000" font-family="sans-serif" font-size="14" lengthAdjust="spacing" textLength="111" x="157.5947" y="374.3083">Cancelar Compra</text></g><g id="elem_UC6"><ellipse cx="214.3974" cy="443.9795" fill="#F1F1F1" rx="90.3974" ry="20.4795" style="stroke:#181818;stroke-width:0.5;"/><text fill="#000000" font-family="sans-serif" font-size="14" lengthAdjust="spacing" textLength="139" x="144.8974" y="447.708">Realizar o Pagamento</text></g><!--MD5=[8e9b2d9d80e066cced8e5d90e9bdea61]
entity c--><g id="elem_c"><ellipse cx="28" cy="229.5" fill="#F1F1F1" rx="8" ry="8" style="stroke:#181818;stroke-width:0.5;"/><path d="M28,237.5 L28,264.5 M15,245.5 L41,245.5 M28,264.5 L15,279.5 M28,264.5 L41,279.5 " fill="none" style="stroke:#181818;stroke-width:0.5;"/><text fill="#000000" font-family="sans-serif" font-size="14" lengthAdjust="spacing" textLength="44" x="6" y="295.5332">Cliente</text></g><!--MD5=[231f635dede5940d51ca320d2782ce6c]
link c to UC1--><g id="link_c_UC1"><path d="M32.67,220.84 C38.17,184.15 51.88,130.26 86,98 C99.62,85.12 117.46,76.69 135.47,71.18 " fill="none" id="c-to-UC1" style="stroke:#181818;stroke-width:1.0;"/><polygon fill="#181818" points="140.54,69.7,130.78,68.38,135.74,71.1,133.02,76.06,140.54,69.7" style="stroke:#181818;stroke-width:1.0;"/></g><!--MD5=[2110900e7b9f8bd9c77dd8810158f208]
link c to UC2--><g id="link_c_UC2"><path d="M49.75,220.78 C59.13,206.22 71.41,190.67 86,180 C99.61,170.05 115.73,162.45 131.86,156.66 " fill="none" id="c-to-UC2" style="stroke:#181818;stroke-width:1.0;"/><polygon fill="#181818" points="136.86,154.92,127.0457,154.0952,132.1369,156.5609,129.6712,161.6521,136.86,154.92" style="stroke:#181818;stroke-width:1.0;"/></g><!--MD5=[d0799cae5d9a295fb7796d4df448133f]
link c to UC3--><g id="link_c_UC3"><path d="M50.16,255.53 C70.83,251.16 103.57,244.24 134.33,237.74 " fill="none" id="c-to-UC3" style="stroke:#181818;stroke-width:1.0;"/><polygon fill="#181818" points="139.25,236.7,129.6133,234.6669,134.3602,237.7437,131.2833,242.4906,139.25,236.7" style="stroke:#181818;stroke-width:1.0;"/></g><!--MD5=[328a1b75033cb6e21905ae7b227d40c1]
link c to UC4--><g id="link_c_UC4"><path d="M50.16,264.36 C73.62,269.19 112.63,277.23 146.65,284.23 " fill="none" id="c-to-UC4" style="stroke:#181818;stroke-width:1.0;"/><polygon fill="#181818" points="151.63,285.26,143.6276,279.5187,146.7338,284.2465,142.006,287.3527,151.63,285.26" style="stroke:#181818;stroke-width:1.0;"/></g><!--MD5=[cd103d56b5c9df7f695877b59e942d27]
link c to UC5--><g id="link_c_UC5"><path d="M50.11,296.52 C59.54,310.02 71.76,324.37 86,334 C103.12,345.58 123.94,353.47 143.75,358.83 " fill="none" id="c-to-UC5" style="stroke:#181818;stroke-width:1.0;"/><polygon fill="#181818" points="148.76,360.14,141.0538,354.007,143.9204,358.8837,139.0437,361.7503,148.76,360.14" style="stroke:#181818;stroke-width:1.0;"/></g><!--MD5=[be446986d62d845f7e8321f52bb108a8]
link c to UC6--><g id="link_c_UC6"><path d="M34.77,299.17 C41.58,331.8 56.02,377.26 86,405 C99.2,417.21 116.13,425.61 133.32,431.37 " fill="none" id="c-to-UC6" style="stroke:#181818;stroke-width:1.0;"/><polygon fill="#181818" points="138.17,432.93,130.8194,426.3749,133.4084,431.4046,128.3787,433.9935,138.17,432.93" style="stroke:#181818;stroke-width:1.0;"/></g><!--MD5=[4219fe12558a01787e7848a19edb60df]
@startuml "use-cases"
left to right direction
actor Cliente as c
package Casos-de-Uso{
  usecase "Vizualisar Produtos" as UC1
  usecase "Acessar Lista de Mercados" as UC2
  usecase "Acessar Lista de Compras" as UC3
  usecase "Pesquisar Produtos" as UC4
  usecase "Cancelar Compra" as UC5
  usecase "Realizar o Pagamento" as UC6
}
c - -> UC1
c - -> UC2
c - -> UC3
c - -> UC4
c - -> UC5
c - -> UC6
@enduml

PlantUML version 1.2022.7(Mon Aug 22 14:01:30 BRT 2022)
(GPL source distribution)
Java Runtime: OpenJDK Runtime Environment
JVM: OpenJDK 64-Bit Server VM
Default Encoding: Cp1252
Language: pt
Country: BR
--></g></svg>